<?xml version="1.0" standalone="yes"?>
<svg xmlns="http://www.w3.org/2000/svg" width="186" height="186">
<path style="fill:#5195f3; stroke:none;" d="M0 0L0 186L186 186L186 0L0 0z"/>
<path style="fill:#d9e7fd; stroke:none;" d="M106 39C107.248 39.6848 107.548 39.7488 109 40C107.752 39.3152 107.452 39.2512 106 39z"/>
<path style="fill:#ffffff; stroke:none;" d="M95 55C105.774 60.9758 116.114 70.5037 128 74C130.854 68.6369 136.343 62.5056 134.343 56.0147C132.844 51.1457 128.038 48.697 124 46.1921C114.001 39.99 105.368 36.1027 98.0694 47.9985C96.6769 50.2682 95.7466 52.4629 95 55z"/>
<path style="fill:#c5ddfb; stroke:none;" d="M110 39C111.248 39.6848 111.548 39.7488 113 40C111.752 39.3152 111.452 39.2512 110 39z"/>
<path style="fill:#a7c9f9; stroke:none;" d="M114 40L115 41L114 40z"/>
<path style="fill:#9bc1f9; stroke:none;" d="M119 43L120 44L119 43z"/>
<path style="fill:#b7d3fb; stroke:none;" d="M100 44L101 45L100 44z"/>
<path style="fill:#afcff9; stroke:none;" d="M122 45L123 46L122 45z"/>
<path style="fill:#a3c7f9; stroke:none;" d="M98 47L99 48L98 47z"/>
<path style="fill:#9bc1f9; stroke:none;" d="M127 48L128 49L127 48z"/>
<path style="fill:#afcff9; stroke:none;" d="M130 50L131 51L130 50z"/>
<path style="fill:#b5d3f9; stroke:none;" d="M95 52L96 53L95 52z"/>
<path style="fill:#83b3f7; stroke:none;" d="M94.3333 53.6667C94.2778 53.7222 94.2222 54.7778 94.6667 54.3333C94.7223 54.2777 94.7778 53.2223 94.3333 53.6667z"/>
<path style="fill:#abcbf9; stroke:none;" d="M133 53L134 54L133 53z"/>
<path style="fill:#b9d5fb; stroke:none;" d="M96 55L97 56L96 55z"/>
<path style="fill:#a9cbf9; stroke:none;" d="M134 55L135 56L134 55z"/>
<path style="fill:#a3c7f9; stroke:none;" d="M99 57L100 58L99 57z"/>
<path style="fill:#7baff5; stroke:none;" d="M91.6667 58.3333C91.2222 58.7778 92.2778 58.7222 92.3333 58.6667C92.7778 58.2222 91.7222 58.2778 91.6667 58.3333z"/>
<path style="fill:#ffffff; stroke:none;" d="M91 59C84.9574 70.351 77.5376 81.1218 70.6813 92C68.4734 95.503 62.9289 101.554 63.2523 105.896C63.4662 108.767 66.8904 110.329 69.0008 111.681C74.9486 115.491 80.9279 119.325 87 122.934C89.1979 124.241 92.0535 126.127 94.6744 124.867C98.5742 122.992 101.113 116.5 103.319 113C110.175 102.122 120.111 90.2844 124 78C113.115 72.2056 102.867 62.492 91 59z"/>
<path style="fill:#bdd7fb; stroke:none;" d="M93 59L94 60L93 59z"/>
<path style="fill:#a9cbf9; stroke:none;" d="M90 60L91 61L90 60z"/>
<path style="fill:#91bbf7; stroke:none;" d="M95 60L96 61L95 60z"/>
<path style="fill:#b5d3f9; stroke:none;" d="M104 60L105 61L104 60z"/>
<path style="fill:#a7c9f9; stroke:none;" d="M98 62L99 63L98 62z"/>
<path style="fill:#9dc3f9; stroke:none;" d="M107 62L108 63L107 62z"/>
<path style="fill:#a7c9f9; stroke:none;" d="M134 62L135 63L134 62z"/>
<path style="fill:#91bbf7; stroke:none;" d="M88 63L89 64L88 63z"/>
<path style="fill:#bdd7fb; stroke:none;" d="M101 64L102 65L101 64z"/>
<path style="fill:#a3c7f9; stroke:none;" d="M133 64L134 65L133 64z"/>
<path style="fill:#bdd7fb; stroke:none;" d="M87 65L88 66L87 65z"/>
<path style="fill:#93bdf7; stroke:none;" d="M103 65L104 66L103 65z"/>
<path style="fill:#b1cff9; stroke:none;" d="M112 65L113 66L112 65z"/>
<path style="fill:#a9cbf9; stroke:none;" d="M106 67L107 68L106 67z"/>
<path style="fill:#9bc1f9; stroke:none;" d="M115 67L116 68L115 67z"/>
<path style="fill:#b7d3fb; stroke:none;" d="M131 67L132 68L131 67z"/>
<path style="fill:#a5c9f9; stroke:none;" d="M85 68L86 69L85 68z"/>
<path style="fill:#bfd9fb; stroke:none;" d="M109 69L110 70L109 69z"/>
<path style="fill:#8fbbf7; stroke:none;" d="M130 69L131 70L130 69z"/>
<path style="fill:#79adf5; stroke:none;" d="M95 70C96.5061 70.683 97.3148 70.8259 99 71C97.4939 70.317 96.6852 70.1741 95 70z"/>
<path style="fill:#93bdf7; stroke:none;" d="M111 70L112 71L111 70z"/>
<path style="fill:#adcdf9; stroke:none;" d="M120 70L121 71L120 70z"/>
<path style="fill:#8fbbf7; stroke:none;" d="M83 71L84 72L83 71z"/>
<path style="fill:#91bbf7; stroke:none;" d="M94 71L95 72L94 71z"/>
<path style="fill:#5195f3; stroke:none;" d="M73 110C83.0568 109.225 89.585 91.7738 94.4236 84C95.9651 81.5235 100.982 75.7643 98.8681 72.6227C95.8991 68.2101 90.5973 77.1353 89.4244 79C83.7886 87.9599 73.5845 99.1919 73 110z"/>
<path style="fill:#9bc1f9; stroke:none;" d="M99 71L100 72L99 71z"/>
<path style="fill:#a9cbf9; stroke:none;" d="M114 72L115 73L114 72z"/>
<path style="fill:#97bff7; stroke:none;" d="M123 72L124 73L123 72z"/>
<path style="fill:#a3c7f9; stroke:none;" d="M128 72L129 73L128 72z"/>
<path style="fill:#b9d5fb; stroke:none;" d="M82 73L83 74L82 73z"/>
<path style="fill:#c1d9fb; stroke:none;" d="M125 73L126 74L125 73z"/>
<path style="fill:#9bc1f9; stroke:none;" d="M92 74L93 75L92 74z"/>
<path style="fill:#bfd9fb; stroke:none;" d="M117 74L118 75L117 74z"/>
<path style="fill:#75abf5; stroke:none;" d="M126.667 74.3333C126.222 74.7778 127.278 74.7222 127.333 74.6667C127.778 74.2222 126.722 74.2778 126.667 74.3333z"/>
<path style="fill:#a3c7f9; stroke:none;" d="M99 75L100 76L99 75z"/>
<path style="fill:#93bdf7; stroke:none;" d="M119 75L120 76L119 75z"/>
<path style="fill:#a3c7f9; stroke:none;" d="M80 76L81 77L80 76z"/>
<path style="fill:#b1cff9; stroke:none;" d="M90 77L91 78L90 77z"/>
<path style="fill:#d1e3fb; stroke:none;" d="M108.667 77.3333C108.222 77.7778 109.278 77.7222 109.333 77.6667C109.778 77.2222 108.722 77.2778 108.667 77.3333z"/>
<path style="fill:#a9cbf9; stroke:none;" d="M122 77L123 78L122 77z"/>
<path style="fill:#b3d1f9; stroke:none;" d="M106 78L107 79L106 78z"/>
<path style="fill:#5195f3; stroke:none;" d="M107.166 79.0864C103.962 80.6792 102.134 85.121 100.319 88C96.1352 94.6364 91.7685 101.218 87.8264 108C86.8642 109.655 82.8947 117.86 88.1049 117.079C91.5273 116.565 93.6923 111.573 95.3187 109C100.351 101.039 107.002 92.7363 110.567 84.0046C111.67 81.3032 111.061 77.1497 107.166 79.0864z"/>
<path style="fill:#8fbbf7; stroke:none;" d="M78 79L79 80L78 79z"/>
<path style="fill:#b7d3fb; stroke:none;" d="M96 80L97 81L96 80z"/>
<path style="fill:#a5c9f9; stroke:none;" d="M123 80L124 81L123 80z"/>
<path style="fill:#b7d3fb; stroke:none;" d="M77 81L78 82L77 81z"/>
<path style="fill:#abcbf9; stroke:none;" d="M104 81L105 82L104 81z"/>
<path style="fill:#9bc1f9; stroke:none;" d="M87 82L88 83L87 82z"/>
<path style="fill:#91bbf7; stroke:none;" d="M111 82L112 83L111 82z"/>
<path style="fill:#a3c7f9; stroke:none;" d="M94 83L95 84L94 83z"/>
<path style="fill:#bdd7fb; stroke:none;" d="M121 83L122 84L121 83z"/>
<path style="fill:#a3c7f9; stroke:none;" d="M75 84L76 85L75 84z"/>
<path style="fill:#c1d9fb; stroke:none;" d="M102 84L103 85L102 84z"/>
<path style="fill:#b7d3fb; stroke:none;" d="M110 84L111 85L110 84z"/>
<path style="fill:#b1cff9; stroke:none;" d="M85 85L86 86L85 85z"/>
<path style="fill:#91bbf7; stroke:none;" d="M120 85L121 86L120 85z"/>
<path style="fill:#95bff7; stroke:none;" d="M101 86L102 87L101 86z"/>
<path style="fill:#a3c7f9; stroke:none;" d="M108 87L109 88L108 87z"/>
<path style="fill:#b7d3fb; stroke:none;" d="M91 88L92 89L91 88z"/>
<path style="fill:#a9cbf9; stroke:none;" d="M118 88L119 89L118 88z"/>
<path style="fill:#b7d3fb; stroke:none;" d="M72 89L73 90L72 89z"/>
<path style="fill:#abcbf9; stroke:none;" d="M99 89L100 90L99 89z"/>
<path style="fill:#9dc3f9; stroke:none;" d="M82 90L83 91L82 90z"/>
<path style="fill:#a1c5f9; stroke:none;" d="M89 91L90 92L89 91z"/>
<path style="fill:#bfd9fb; stroke:none;" d="M116 91L117 92L116 91z"/>
<path style="fill:#a1c5f9; stroke:none;" d="M70 92L71 93L70 92z"/>
<path style="fill:#c1d9fb; stroke:none;" d="M97 92L98 93L97 92z"/>
<path style="fill:#b7d3fb; stroke:none;" d="M105 92L106 93L105 92z"/>
<path style="fill:#b3d1f9; stroke:none;" d="M80 93L81 94L80 93z"/>
<path style="fill:#93bdf7; stroke:none;" d="M115 93L116 94L115 93z"/>
<path style="fill:#97bff7; stroke:none;" d="M96 94L97 95L96 94z"/>
<path style="fill:#a3c7f9; stroke:none;" d="M103 95L104 96L103 95z"/>
<path style="fill:#b5d3f9; stroke:none;" d="M86 96L87 97L86 96z"/>
<path style="fill:#abcbf9; stroke:none;" d="M113 96L114 97L113 96z"/>
<path style="fill:#b5d3f9; stroke:none;" d="M67 97L68 98L67 97z"/>
<path style="fill:#adcdf9; stroke:none;" d="M94 97L95 98L94 97z"/>
<path style="fill:#9dc3f9; stroke:none;" d="M77 98L78 99L77 98z"/>
<path style="fill:#9fc5f9; stroke:none;" d="M84 99L85 100L84 99z"/>
<path style="fill:#c1d9fb; stroke:none;" d="M111 99L112 100L111 99z"/>
<path style="fill:#9fc5f9; stroke:none;" d="M65 100L66 101L65 100z"/>
<path style="fill:#c1d9fb; stroke:none;" d="M92 100L93 101L92 100z"/>
<path style="fill:#b7d3fb; stroke:none;" d="M100 100L101 101L100 100z"/>
<path style="fill:#b3d1f9; stroke:none;" d="M75 101L76 102L75 101z"/>
<path style="fill:#95bff7; stroke:none;" d="M110 101L111 102L110 101z"/>
<path style="fill:#99c1f7; stroke:none;" d="M91 102L92 103L91 102z"/>
<path style="fill:#a1c5f9; stroke:none;" d="M98 103L99 104L98 103z"/>
<path style="fill:#b3d1f9; stroke:none;" d="M81 104L82 105L81 104z"/>
<path style="fill:#adcdf9; stroke:none;" d="M108 104L109 105L108 104z"/>
<path style="fill:#b3d1f9; stroke:none;" d="M62 105L63 106L62 105z"/>
<path style="fill:#adcdf9; stroke:none;" d="M89 105L90 106L89 105z"/>
<path style="fill:#8bb7f7; stroke:none;" d="M72 106L72 109C72.6961 107.446 72.6961 107.554 72 106z"/>
<path style="fill:#a7c9f9; stroke:none;" d="M62 107L63 108L62 107z"/>
<path style="fill:#9dc3f9; stroke:none;" d="M79 107L80 108L79 107z"/>
<path style="fill:#c1d9fb; stroke:none;" d="M106 107L107 108L106 107M87 108L88 109L87 108z"/>
<path style="fill:#b7d3fb; stroke:none;" d="M95 108L96 109L95 108z"/>
<path style="fill:#91bbf7; stroke:none;" d="M65 109L66 110L65 109z"/>
<path style="fill:#99c1f7; stroke:none;" d="M105 109L106 110L105 109z"/>
<path style="fill:#bdd7fb; stroke:none;" d="M67 110L68 111L67 110z"/>
<path style="fill:#73a9f5; stroke:none;" d="M74 110C75.2484 110.685 75.5484 110.749 77 111C75.7516 110.315 75.4516 110.251 74 110z"/>
<path style="fill:#99c1f7; stroke:none;" d="M86 110L87 111L86 110z"/>
<path style="fill:#a1c5f9; stroke:none;" d="M93 111L94 112L93 111z"/>
<path style="fill:#a5c9f9; stroke:none;" d="M70 112L71 113L70 112z"/>
<path style="fill:#adcdf9; stroke:none;" d="M103 112L104 113L103 112z"/>
<path style="fill:#ffffff; stroke:none;" d="M58 113C58.9335 118.028 59 122.9 59 128C66.47 128.388 72.5329 132.373 76 139C80.5126 137.766 84.6825 135.771 89 134L89 132C79.0838 125.438 68.7445 118.082 58 113z"/>
<path style="fill:#91bbf7; stroke:none;" d="M59 113L60 114L59 113z"/>
<path style="fill:#77adf5; stroke:none;" d="M84 113L84 116C84.6961 114.446 84.6961 114.554 84 113z"/>
<path style="fill:#8fbbf7; stroke:none;" d="M73 114L74 115L73 114z"/>
<path style="fill:#d1e3fb; stroke:none;" d="M58 115L58 121C58.9511 118.715 58.9511 117.285 58 115z"/>
<path style="fill:#a7c9f9; stroke:none;" d="M62 115L63 116L62 115z"/>
<path style="fill:#b9d5fb; stroke:none;" d="M75 115L76 116L75 115z"/>
<path style="fill:#c1d9fb; stroke:none;" d="M101 115L102 116L101 115z"/>
<path style="fill:#bfd9fb; stroke:none;" d="M84 116L85 117L84 116z"/>
<path style="fill:#b7d3fb; stroke:none;" d="M90 116L91 117L90 116z"/>
<path style="fill:#bdd7fb; stroke:none;" d="M65 117L66 118L65 117z"/>
<path style="fill:#a3c7f9; stroke:none;" d="M78 117L79 118L78 117z"/>
<path style="fill:#abcbf9; stroke:none;" d="M85 117L86 118L85 117z"/>
<path style="fill:#a7c9f9; stroke:none;" d="M89 117L90 118L89 117z"/>
<path style="fill:#99c1f7; stroke:none;" d="M100 117L101 118L100 117z"/>
<path style="fill:#93bdf7; stroke:none;" d="M67 118L68 119L67 118z"/>
<path style="fill:#a9cbf9; stroke:none;" d="M70 120L71 121L70 120z"/>
<path style="fill:#b7d3fb; stroke:none;" d="M83 120L84 121L83 120z"/>
<path style="fill:#adcdf9; stroke:none;" d="M98 120L99 121L98 120z"/>
<path style="fill:#a9cbf9; stroke:none;" d="M58 121L58 128C59.0595 125.466 59.0595 123.534 58 121z"/>
<path style="fill:#bfd9fb; stroke:none;" d="M73 122L74 123L73 122z"/>
<path style="fill:#a3c7f9; stroke:none;" d="M86 122L87 123L86 122z"/>
<path style="fill:#93bdf7; stroke:none;" d="M75 123L76 124L75 123z"/>
<path style="fill:#c1d9fb; stroke:none;" d="M96 123L97 124L96 123z"/>
<path style="fill:#a9cbf9; stroke:none;" d="M78 125L79 126L78 125z"/>
<path style="fill:#b5d3f9; stroke:none;" d="M91 125L92 126L91 125z"/>
<path style="fill:#99c1f7; stroke:none;" d="M95 125L96 126L95 125z"/>
<path style="fill:#d9e7fd; stroke:none;" d="M93.6667 126.333C93.2222 126.778 94.2778 126.722 94.3333 126.667C94.7778 126.222 93.7222 126.278 93.6667 126.333z"/>
<path style="fill:#bfd9fb; stroke:none;" d="M81 127L82 128L81 127z"/>
<path style="fill:#a3c7f9; stroke:none;" d="M62 128C63.2483 128.685 63.5484 128.749 65 129C63.7516 128.315 63.4516 128.251 62 128z"/>
<path style="fill:#95bff7; stroke:none;" d="M83 128L84 129L83 128z"/>
<path style="fill:#9bc1f9; stroke:none;" d="M66 129L67 130L66 129z"/>
<path style="fill:#99c1f7; stroke:none;" d="M68 130L69 131L68 130z"/>
<path style="fill:#adcdf9; stroke:none;" d="M86 130L87 131L86 130z"/>
<path style="fill:#6da7f5; stroke:none;" d="M58 131L58 136C58.8299 133.97 58.8299 133.03 58 131z"/>
<path style="fill:#b5d3f9; stroke:none;" d="M59.6667 131.333C59.2222 131.778 60.2778 131.722 60.3333 131.667C60.7778 131.222 59.7222 131.278 59.6667 131.333z"/>
<path style="fill:#7baff5; stroke:none;" d="M61.6667 131.333C61.2222 131.778 62.2778 131.722 62.3333 131.667C62.7778 131.222 61.7222 131.278 61.6667 131.333z"/>
<path style="fill:#ffffff; stroke:none;" d="M59 132C59.0005 136.763 59.4041 141.284 60 146C64.5995 144.907 68.6586 142.805 73 141C70.7403 134.495 65.5814 132.158 59 132z"/>
<path style="fill:#9bc1f9; stroke:none;" d="M71 132L72 133L71 132z"/>
<path style="fill:#bdd7fb; stroke:none;" d="M89.3333 132.667C89.2777 132.722 89.2222 133.778 89.6667 133.333C89.7222 133.278 89.7778 132.222 89.3333 132.667z"/>
<path style="fill:#91bbf7; stroke:none;" d="M72 133L73 134L72 133z"/>
<path style="fill:#b5d3f9; stroke:none;" d="M68 134L69 135L68 134z"/>
<path style="fill:#91bbf7; stroke:none;" d="M73 134L74 135L73 134z"/>
<path style="fill:#abcbf9; stroke:none;" d="M87 134L88 135L87 134z"/>
<path style="fill:#b1cff9; stroke:none;" d="M74 135L75 136L74 135z"/>
<path style="fill:#97bff7; stroke:none;" d="M85 135L86 136L85 135z"/>
<path style="fill:#bbd5fb; stroke:none;" d="M80 137L81 138L80 137z"/>
<path style="fill:#95bff7; stroke:none;" d="M72 138L73 139L72 138z"/>
<path style="fill:#a9cbf9; stroke:none;" d="M78 138L79 139L78 138z"/>
<path style="fill:#8fbbf7; stroke:none;" d="M73 140L74 141L73 140z"/>
<path style="fill:#b7d3fb; stroke:none;" d="M71 141L72 142L71 141z"/>
<path style="fill:#ddebfd; stroke:none;" d="M59 142L59 146C59.7102 144.241 59.7102 143.759 59 142z"/>
<path style="fill:#a3c7f9; stroke:none;" d="M69 142L70 143L69 142z"/>
<path style="fill:#b9d5fb; stroke:none;" d="M62 145L63 146L62 145z"/>
<path style="fill:#a5c9f9; stroke:none;" d="M59.6667 146.333C59.2222 146.778 60.2778 146.722 60.3333 146.667C60.7778 146.222 59.7222 146.278 59.6667 146.333z"/>
</svg>
