<?xml version="1.0" standalone="yes"?>
<svg xmlns="http://www.w3.org/2000/svg" width="44" height="44">
<path style="fill:#5094f2; stroke:none;" d="M0 0L0 44L44 44L44 0L0 0z"/>
<path style="fill:#66a1f4; stroke:none;" d="M17 13L18 14L17 13z"/>
<path style="fill:#9dc3f8; stroke:none;" d="M18 13L19 14L18 13z"/>
<path style="fill:#5b9bf3; stroke:none;" d="M28 13L29 14L28 13z"/>
<path style="fill:#a7c9f8; stroke:none;" d="M29 13C29.5451 14.6352 29.3648 14.4549 31 15C30.4549 13.3648 30.6352 13.5451 29 13z"/>
<path style="fill:#92bcf7; stroke:none;" d="M16 14L17 15L16 14z"/>
<path style="fill:#f4f8fe; stroke:none;" d="M17 14L18 15L17 14z"/>
<path style="fill:#ffffff; stroke:none;" d="M18 14C14.8986 16.6347 12.1607 19.6274 12.2137 23.9954C12.2391 26.0897 13.7139 30.4601 16.6674 28.8279C17.6265 28.298 18.0281 27.1457 17.7168 26.1103C17.1747 24.3073 15.8095 22.9085 16.0355 20.9113C16.3292 18.3154 18.1467 16.638 18 14z"/>
<path style="fill:#7caff5; stroke:none;" d="M19 14L20 15L19 14z"/>
<path style="fill:#71a8f4; stroke:none;" d="M27 14L28 15L27 14z"/>
<path style="fill:#e9f2fd; stroke:none;" d="M28 14L29 15L28 14z"/>
<path style="fill:#ffffff; stroke:none;" d="M29 14C26.1194 16.7865 23.6059 19.7626 23.4128 23.9954C23.3124 26.1965 25.282 31.3093 28.3534 28.9174C30.7116 27.081 27.172 23.8759 27.0131 21.8302C26.7934 19.0012 29.1568 16.8191 29 14z"/>
<path style="fill:#b2d0f9; stroke:none;" d="M15 15L16 16L15 15z"/>
<path style="fill:#deebfd; stroke:none;" d="M19 15L16 19C17.7561 17.6231 18.5396 17.1059 19 15z"/>
<path style="fill:#92bcf7; stroke:none;" d="M26 15L27 16L26 15z"/>
<path style="fill:#f4f8fe; stroke:none;" d="M27 15L28 16L27 15M30 15L27 19C28.756 17.6231 29.5396 17.1059 30 15z"/>
<path style="fill:#66a1f4; stroke:none;" d="M31 15L32 16L31 15z"/>
<path style="fill:#9dc3f8; stroke:none;" d="M14 16L15 17L14 16z"/>
<path style="fill:#71a8f4; stroke:none;" d="M19 16L20 17L19 16M25 16L26 17L25 16z"/>
<path style="fill:#87b6f6; stroke:none;" d="M30 16L31 17L30 16z"/>
<path style="fill:#7caff5; stroke:none;" d="M13 17L14 18L13 17z"/>
<path style="fill:#5b9bf3; stroke:none;" d="M18 17L19 18L18 17M24 17L25 18L24 17z"/>
<path style="fill:#f4f8fe; stroke:none;" d="M25 17L26 18L25 17z"/>
<path style="fill:#71a8f4; stroke:none;" d="M29 17L30 18L29 17z"/>
<path style="fill:#e9f2fd; stroke:none;" d="M13 18L14 19L13 18z"/>
<path style="fill:#5b9bf3; stroke:none;" d="M17 18L18 19L17 18z"/>
<path style="fill:#bdd7fa; stroke:none;" d="M24 18L25 19L24 18z"/>
<path style="fill:#71a8f4; stroke:none;" d="M28 18L29 19L28 18z"/>
<path style="fill:#92bcf7; stroke:none;" d="M12 19L13 20L12 19z"/>
<path style="fill:#71a8f4; stroke:none;" d="M16 19L17 20L16 19z"/>
<path style="fill:#66a1f4; stroke:none;" d="M23 19L24 20L23 19z"/>
<path style="fill:#9dc3f8; stroke:none;" d="M27 19L28 20L27 19z"/>
<path style="fill:#c8ddfb; stroke:none;" d="M12 20L13 21L12 20M15 20L16 21L15 20z"/>
<path style="fill:#9dc3f8; stroke:none;" d="M23 20L24 21L23 20z"/>
<path style="fill:#f4f8fe; stroke:none;" d="M26 20L27 21L26 20z"/>
<path style="fill:#92bcf7; stroke:none;" d="M15 21L16 22L15 21z"/>
<path style="fill:#d3e4fc; stroke:none;" d="M23 21L24 22L23 21z"/>
<path style="fill:#bdd7fa; stroke:none;" d="M26 21L27 22L26 21z"/>
<path style="fill:#71a8f4; stroke:none;" d="M11 22L12 23L11 22z"/>
<path style="fill:#7caff5; stroke:none;" d="M15 22L16 23L15 22z"/>
<path style="fill:#f4f8fe; stroke:none;" d="M23 22L24 23L23 22z"/>
<path style="fill:#a7c9f8; stroke:none;" d="M26 22L27 23L26 22z"/>
<path style="fill:#7caff5; stroke:none;" d="M11 23L11 27C11.7102 25.2405 11.7102 24.7595 11 23z"/>
<path style="fill:#9dc3f8; stroke:none;" d="M15 23L16 24L15 23z"/>
<path style="fill:#71a8f4; stroke:none;" d="M16 23L17 24L16 23z"/>
<path style="fill:#bdd7fa; stroke:none;" d="M26 23L27 24L26 23z"/>
<path style="fill:#7caff5; stroke:none;" d="M27 23L28 24L27 23z"/>
<path style="fill:#deebfd; stroke:none;" d="M17 24C17.5451 25.6352 17.3648 25.4549 19 26C18.4549 24.3648 18.6352 24.5451 17 24z"/>
<path style="fill:#71a8f4; stroke:none;" d="M18 24L19 25L18 24z"/>
<path style="fill:#f4f8fe; stroke:none;" d="M28 24C28.5451 25.6352 28.3648 25.4549 30 26C29.4549 24.3648 29.6352 24.5451 28 24z"/>
<path style="fill:#87b6f6; stroke:none;" d="M29 24L30 25L29 24z"/>
<path style="fill:#66a1f4; stroke:none;" d="M30 25L31 26L30 25z"/>
<path style="fill:#7caff5; stroke:none;" d="M30.3333 26.6667C30.2778 26.7222 30.2222 27.7778 30.6667 27.3333C30.7222 27.2778 30.7778 26.2222 30.3333 26.6667z"/>
<path style="fill:#f4f8fe; stroke:none;" d="M12 27L13 28L12 27z"/>
<path style="fill:#c8ddfb; stroke:none;" d="M23 27L24 28L23 27z"/>
<path style="fill:#bdd7fa; stroke:none;" d="M12 28L13 29L12 28z"/>
<path style="fill:#e9f2fd; stroke:none;" d="M18 28L19 29L18 28z"/>
<path style="fill:#92bcf7; stroke:none;" d="M23 28L24 29L23 28z"/>
<path style="fill:#66a1f4; stroke:none;" d="M30 28L31 29L30 28z"/>
<path style="fill:#5b9bf3; stroke:none;" d="M12 29L13 30L12 29z"/>
<path style="fill:#deebfd; stroke:none;" d="M13 29L14 30L13 29z"/>
<path style="fill:#f4f8fe; stroke:none;" d="M17 29L18 30L17 29z"/>
<path style="fill:#71a8f4; stroke:none;" d="M18 29L19 30L18 29z"/>
<path style="fill:#bdd7fa; stroke:none;" d="M24 29L25 30L24 29z"/>
<path style="fill:#92bcf7; stroke:none;" d="M29 29L30 30L29 29z"/>
<path style="fill:#87b6f6; stroke:none;" d="M14 30L15 31L14 30z"/>
<path style="fill:#a7c9f8; stroke:none;" d="M15 30L16 31L15 30z"/>
<path style="fill:#9dc3f8; stroke:none;" d="M16 30L17 31L16 30z"/>
<path style="fill:#66a1f4; stroke:none;" d="M17 30L18 31L17 30z"/>
<path style="fill:#71a8f4; stroke:none;" d="M25 30L26 31L25 30z"/>
<path style="fill:#a7c9f8; stroke:none;" d="M26.6667 30.3333C26.2222 30.7778 27.2778 30.7222 27.3333 30.6667C27.7778 30.2222 26.7222 30.2778 26.6667 30.3333z"/>
<path style="fill:#71a8f4; stroke:none;" d="M28 30L29 31L28 30z"/>
</svg>
